<svg height="926" width="720" xmlns="http://www.w3.org/2000/svg">
<rect height="926" fill="#555" width="720"></rect>
<text fill="#7f7" font-family="Courier New" font-size="12" xml:space="preserve">
<tspan x="10" y="26">10 megabytes installed</tspan>
<tspan x="10" y="42"></tspan>
<tspan x="10" y="58">node_modules</tspan>
<tspan x="10" y="74">└─┬ grunt-init@0.3.2 </tspan>
<tspan x="10" y="90">  ├── async@0.2.10 </tspan>
<tspan x="10" y="106">  ├── colors@0.6.2 </tspan>
<tspan x="10" y="122">  ├─┬ grunt@0.4.5 </tspan>
<tspan x="10" y="138">  │ ├── async@0.1.22 </tspan>
<tspan x="10" y="154">  │ ├── coffee-script@1.3.3 </tspan>
<tspan x="10" y="170">  │ ├── dateformat@1.0.2-1.2.3 </tspan>
<tspan x="10" y="186">  │ ├── eventemitter2@0.4.14 </tspan>
<tspan x="10" y="202">  │ ├── exit@0.1.2 </tspan>
<tspan x="10" y="218">  │ ├─┬ findup-sync@0.1.3 </tspan>
<tspan x="10" y="234">  │ │ └─┬ glob@3.2.11 </tspan>
<tspan x="10" y="250">  │ │   ├── inherits@2.0.3 </tspan>
<tspan x="10" y="266">  │ │   └── minimatch@0.3.0 </tspan>
<tspan x="10" y="282">  │ ├── getobject@0.1.0 </tspan>
<tspan x="10" y="298">  │ ├─┬ glob@3.1.21 </tspan>
<tspan x="10" y="314">  │ │ ├── graceful-fs@1.2.3 </tspan>
<tspan x="10" y="330">  │ │ └── inherits@1.0.2 </tspan>
<tspan x="10" y="346">  │ ├─┬ grunt-legacy-log@0.1.3 </tspan>
<tspan x="10" y="362">  │ │ ├─┬ grunt-legacy-log-utils@0.1.1 </tspan>
<tspan x="10" y="378">  │ │ │ └── underscore.string@2.3.3 </tspan>
<tspan x="10" y="394">  │ │ └── underscore.string@2.3.3 </tspan>
<tspan x="10" y="410">  │ ├─┬ grunt-legacy-util@0.2.0 </tspan>
<tspan x="10" y="426">  │ │ ├── async@0.1.22 </tspan>
<tspan x="10" y="442">  │ │ └── lodash@0.9.2 </tspan>
<tspan x="10" y="458">  │ ├── iconv-lite@0.2.11 </tspan>
<tspan x="10" y="474">  │ ├─┬ js-yaml@2.0.5 </tspan>
<tspan x="10" y="490">  │ │ ├─┬ argparse@0.1.16 </tspan>
<tspan x="10" y="506">  │ │ │ ├── underscore@1.7.0 </tspan>
<tspan x="10" y="522">  │ │ │ └── underscore.string@2.4.0 </tspan>
<tspan x="10" y="538">  │ │ └── esprima@1.0.4 </tspan>
<tspan x="10" y="554">  │ ├── lodash@0.9.2 </tspan>
<tspan x="10" y="570">  │ ├─┬ minimatch@0.2.14 </tspan>
<tspan x="10" y="586">  │ │ ├── lru-cache@2.7.3 </tspan>
<tspan x="10" y="602">  │ │ └── sigmund@1.0.1 </tspan>
<tspan x="10" y="618">  │ ├─┬ nopt@1.0.10 </tspan>
<tspan x="10" y="634">  │ │ └── abbrev@1.1.0 </tspan>
<tspan x="10" y="650">  │ ├── rimraf@2.2.8 </tspan>
<tspan x="10" y="666">  │ ├── underscore.string@2.2.1 </tspan>
<tspan x="10" y="682">  │ └── which@1.0.9 </tspan>
<tspan x="10" y="698">  ├── hooker@0.2.3 </tspan>
<tspan x="10" y="714">  ├── lodash@2.4.2 </tspan>
<tspan x="10" y="730">  ├─┬ prompt@0.1.12 </tspan>
<tspan x="10" y="746">  │ ├── async@0.1.22 </tspan>
<tspan x="10" y="762">  │ ├── pkginfo@0.4.0 </tspan>
<tspan x="10" y="778">  │ └─┬ winston@0.5.11 </tspan>
<tspan x="10" y="794">  │   ├── async@0.1.22 </tspan>
<tspan x="10" y="810">  │   ├── eyes@0.1.8 </tspan>
<tspan x="10" y="826">  │   ├─┬ loggly@0.3.11 </tspan>
<tspan x="10" y="842">  │   │ ├── request@2.9.203 </tspan>
<tspan x="10" y="858">  │   │ └── timespan@2.3.0 </tspan>
<tspan x="10" y="874">  │   ├── pkginfo@0.2.3 </tspan>
<tspan x="10" y="890">  │   └── stack-trace@0.0.9 </tspan>
<tspan x="10" y="906">  └── semver@1.0.14</tspan>
</text>
</svg>
